<svg width="200" height="31" viewBox="0 0 200 31" fill="none" xmlns="http://www.w3.org/2000/svg">
    <path d="M86.1429 26.8155H89.1429V28.1705C89.1429 29.169 88.9286 29.7395 88.5715 30.0248C88.2143 30.3101 87.3572 30.4527 86.1429 30.4527C85.0001 30.4527 84.2143 30.2388 83.8572 29.8822C83.5001 29.5256 83.2858 28.7411 83.2858 27.6C83.2858 26.1023 83.3572 25.1752 83.5001 24.8186C83.7143 24.3194 84.0001 24.0341 84.3572 23.8915C84.7143 23.7488 85.3572 23.6775 86.2858 23.6775C87.5001 23.6775 88.2858 23.8202 88.5715 24.0341C88.9286 24.3194 89.0715 24.8186 89.0715 25.7457H87.7858C87.7858 25.3178 87.6429 25.0326 87.5001 24.8899C87.3572 24.8186 86.9286 24.7473 86.2143 24.7473C85.5001 24.7473 85.0001 24.8186 84.7858 25.0326C84.5715 25.2465 84.5001 25.6744 84.5001 26.3163V26.9581V27.814C84.5001 28.4558 84.5715 28.8837 84.7858 29.0977C85.0001 29.3116 85.4286 29.3829 86.1429 29.3829C86.8572 29.3829 87.2858 29.3116 87.5001 29.169C87.7143 29.0264 87.7858 28.6698 87.7858 28.0992V27.814H86.0715V26.8155H86.1429Z" fill="#EC691A"/>
    <path fill-rule="evenodd" clip-rule="evenodd" d="M98.7858 24.1767C98.4286 23.7488 97.6429 23.5349 96.4286 23.5349C95.0001 23.5349 94.1429 23.7488 93.7858 24.1767C93.4286 24.5333 93.2858 25.6031 93.2858 27.1721C93.2858 28.5271 93.5001 29.3829 93.8572 29.8109C94.2143 30.1674 95.0001 30.3814 96.2143 30.3814C97.5715 30.3814 98.4286 30.2388 98.7858 29.8109C99.1429 29.3829 99.2858 28.4558 99.2858 26.8868C99.2858 25.4605 99.1429 24.6046 98.7858 24.1767ZM94.7858 25.0326C94.9286 24.8186 95.4286 24.676 96.2858 24.676C97.1429 24.676 97.6429 24.7473 97.7858 24.9612C97.9286 25.1752 98.0001 25.8171 98.0001 26.9581C98.0001 28.0279 97.9286 28.7411 97.7858 28.955C97.6429 29.169 97.1429 29.3116 96.3572 29.3116C95.5001 29.3116 95.0001 29.2403 94.8572 29.0264C94.6429 28.8837 94.5715 28.3132 94.5715 27.3147C94.5715 26.031 94.6429 25.2465 94.7858 25.0326Z" fill="#EC691A"/>
    <path d="M105 23.6062V29.169H108.143V30.3101H103.714V23.6062H105Z" fill="#EC691A"/>
    <path d="M113.643 24.676V26.4589H116.643V27.5287H113.643V30.3101H112.357V23.6062H116.786V24.676H113.643Z" fill="#EC691A"/>
    <path d="M0.285767 0.142639V2.49613H7.3572V14.9054H10.0715V2.49613H17.1429V0.142639H0.285767Z" fill="#414141"/>
    <path fill-rule="evenodd" clip-rule="evenodd" d="M35.6429 9.41396H26.8572V14.9054H24.1429V0.142639H35.6429C39.9287 0.142639 40.7144 1.64031 40.7144 4.49303V5.63411C40.7144 7.2031 40.0715 7.9876 39.2144 8.34419C40.1429 8.84341 40.5715 9.69923 40.5715 10.9116V14.9054H38.0001V11.4109C38.0001 9.62791 37.2144 9.41396 35.6429 9.41396ZM35.0001 2.49613H26.8572V6.98915H35.4287C37.5715 6.98915 38.0001 6.41861 38.0001 5.42016V4.13644C38.0001 3.06667 37.9287 2.49613 35.0001 2.49613Z" fill="#414141"/>
    <path fill-rule="evenodd" clip-rule="evenodd" d="M64.4287 14.9054L62.7144 11.9814H52.0001L50.2858 14.9054H47.1429L55.9287 0.142639H58.7858L67.5715 14.9054H64.4287ZM57.3572 2.92403L53.4287 9.62791H61.2858L57.3572 2.92403Z" fill="#414141"/>
    <path d="M116.786 0.641864L116.286 0.142639H112.929L104.143 6.06202H102.357V0.142639H99.5715V14.9054H102.357V8.41551H104L113.572 14.9054H117.214L117.714 14.4062L106.929 7.27442L116.786 0.641864Z" fill="#414141"/>
    <path d="M135.786 11.5535L127.857 0.142639H124.286V14.9054H127V3.5659L134.929 14.9054H136.714L144.571 3.5659V14.9054H147.286V0.142639H143.714L135.786 11.5535Z" fill="#414141"/>
    <path fill-rule="evenodd" clip-rule="evenodd" d="M154 14.9054L162.786 0.142639H165.571L174.429 14.9054H171.286L169.571 11.9814H158.857L157.143 14.9054H154ZM160.214 9.62791H168.143L164.143 2.92403L160.214 9.62791Z" fill="#414141"/>
    <path d="M196.571 0.142639V11.8388L184.429 0.142639H181V14.9054H183.714V3.20931L195.929 14.9054H199.357V0.142639H196.571Z" fill="#414141"/>
    <path d="M89 10.6977C89 12.1953 88.5714 12.6946 86.1429 12.6946H79.5C77.5 12.6946 76.6429 11.9814 76.6429 10.1271V4.92093C76.6429 3.13798 77.5 2.35349 79.5 2.35349H86.0714C87.9286 2.35349 88.8571 2.56744 88.8571 4.42171V5.49147H91.3571V3.85116C91.3571 2.06822 90.5 0 86.5714 0H79.3571C75.5714 0 74 1.71163 74 5.63411V9.41395C74 13.4078 75.5714 15.0481 79.3571 15.0481H86.5C90.7857 15.0481 91.6429 13.4078 91.6429 10.769V9.41395H89V10.6977Z" fill="#414141"/>
    </svg>
    